<mxfile host="app.diagrams.net" modified="2021-01-10T13:42:37.090Z" agent="5.0 (Windows NT 10.0; Win64; x64) AppleWebKit/537.36 (KHTML, like Gecko) Chrome/86.0.4240.198 Safari/537.36 OPR/72.0.3815.459" etag="tQbqHXPd-aAJu5R4mOus" version="14.1.9" type="github">
  <diagram id="C5RBs43oDa-KdzZeNtuy" name="Page-1">
    <mxGraphModel dx="723" dy="764" grid="1" gridSize="10" guides="1" tooltips="1" connect="1" arrows="1" fold="1" page="1" pageScale="1" pageWidth="827" pageHeight="1169" math="0" shadow="0">
      <root>
        <mxCell id="WIyWlLk6GJQsqaUBKTNV-0" />
        <mxCell id="WIyWlLk6GJQsqaUBKTNV-1" parent="WIyWlLk6GJQsqaUBKTNV-0" />
        <mxCell id="Aa-0FZ0MJbsboTJLNCAE-5" value="" style="group" vertex="1" connectable="0" parent="WIyWlLk6GJQsqaUBKTNV-1">
          <mxGeometry x="80" y="380" width="230" height="140" as="geometry" />
        </mxCell>
        <mxCell id="Aa-0FZ0MJbsboTJLNCAE-3" value="" style="shape=folder;fontStyle=1;spacingTop=10;tabWidth=120;tabHeight=20;tabPosition=left;html=1;" vertex="1" parent="Aa-0FZ0MJbsboTJLNCAE-5">
          <mxGeometry width="230" height="140" as="geometry" />
        </mxCell>
        <mxCell id="Aa-0FZ0MJbsboTJLNCAE-4" value="ProviderSubsystem" style="text;html=1;strokeColor=none;fillColor=none;align=center;verticalAlign=middle;whiteSpace=wrap;rounded=0;" vertex="1" parent="Aa-0FZ0MJbsboTJLNCAE-5">
          <mxGeometry width="120" height="20" as="geometry" />
        </mxCell>
        <mxCell id="Aa-0FZ0MJbsboTJLNCAE-20" value="mediaBuffer" style="rounded=0;whiteSpace=wrap;html=1;" vertex="1" parent="Aa-0FZ0MJbsboTJLNCAE-5">
          <mxGeometry x="140" y="50" width="70" height="30" as="geometry" />
        </mxCell>
        <mxCell id="Aa-0FZ0MJbsboTJLNCAE-32" value="HostSystem" style="rounded=0;whiteSpace=wrap;html=1;" vertex="1" parent="Aa-0FZ0MJbsboTJLNCAE-5">
          <mxGeometry x="20" y="30" width="80" height="30" as="geometry" />
        </mxCell>
        <mxCell id="Aa-0FZ0MJbsboTJLNCAE-33" value="ClientSystem" style="rounded=0;whiteSpace=wrap;html=1;" vertex="1" parent="Aa-0FZ0MJbsboTJLNCAE-5">
          <mxGeometry x="20" y="80" width="80" height="30" as="geometry" />
        </mxCell>
        <mxCell id="Aa-0FZ0MJbsboTJLNCAE-40" value="Session" style="rounded=0;whiteSpace=wrap;html=1;" vertex="1" parent="Aa-0FZ0MJbsboTJLNCAE-5">
          <mxGeometry x="130" y="90" width="80" height="30" as="geometry" />
        </mxCell>
        <mxCell id="Aa-0FZ0MJbsboTJLNCAE-6" value="" style="group" vertex="1" connectable="0" parent="WIyWlLk6GJQsqaUBKTNV-1">
          <mxGeometry x="80" y="150" width="290" height="180" as="geometry" />
        </mxCell>
        <mxCell id="Aa-0FZ0MJbsboTJLNCAE-1" value="" style="shape=folder;fontStyle=1;spacingTop=10;tabWidth=120;tabHeight=20;tabPosition=left;html=1;" vertex="1" parent="Aa-0FZ0MJbsboTJLNCAE-6">
          <mxGeometry width="290" height="180" as="geometry" />
        </mxCell>
        <mxCell id="Aa-0FZ0MJbsboTJLNCAE-2" value="DatabaseSubsystem" style="text;html=1;strokeColor=none;fillColor=none;align=center;verticalAlign=middle;whiteSpace=wrap;rounded=0;" vertex="1" parent="Aa-0FZ0MJbsboTJLNCAE-6">
          <mxGeometry width="122.18181818181816" height="21.176470588235297" as="geometry" />
        </mxCell>
        <mxCell id="Aa-0FZ0MJbsboTJLNCAE-15" value="" style="edgeStyle=orthogonalEdgeStyle;rounded=0;orthogonalLoop=1;jettySize=auto;html=1;" edge="1" parent="Aa-0FZ0MJbsboTJLNCAE-6" source="Aa-0FZ0MJbsboTJLNCAE-13" target="Aa-0FZ0MJbsboTJLNCAE-14">
          <mxGeometry relative="1" as="geometry" />
        </mxCell>
        <mxCell id="Aa-0FZ0MJbsboTJLNCAE-17" value="" style="edgeStyle=orthogonalEdgeStyle;rounded=0;orthogonalLoop=1;jettySize=auto;html=1;" edge="1" parent="Aa-0FZ0MJbsboTJLNCAE-6" source="Aa-0FZ0MJbsboTJLNCAE-13" target="Aa-0FZ0MJbsboTJLNCAE-16">
          <mxGeometry relative="1" as="geometry" />
        </mxCell>
        <mxCell id="Aa-0FZ0MJbsboTJLNCAE-19" value="" style="edgeStyle=orthogonalEdgeStyle;rounded=0;orthogonalLoop=1;jettySize=auto;html=1;" edge="1" parent="Aa-0FZ0MJbsboTJLNCAE-6" source="Aa-0FZ0MJbsboTJLNCAE-13" target="Aa-0FZ0MJbsboTJLNCAE-18">
          <mxGeometry relative="1" as="geometry" />
        </mxCell>
        <mxCell id="Aa-0FZ0MJbsboTJLNCAE-13" value="Media" style="html=1;" vertex="1" parent="Aa-0FZ0MJbsboTJLNCAE-6">
          <mxGeometry x="10.18181818181818" y="31.764705882352946" width="81.45454545454544" height="31.764705882352946" as="geometry" />
        </mxCell>
        <mxCell id="Aa-0FZ0MJbsboTJLNCAE-14" value="Image" style="html=1;" vertex="1" parent="Aa-0FZ0MJbsboTJLNCAE-6">
          <mxGeometry x="10.18181818181818" y="150" width="81.45454545454544" height="19.41" as="geometry" />
        </mxCell>
        <mxCell id="Aa-0FZ0MJbsboTJLNCAE-16" value="Music" style="html=1;" vertex="1" parent="Aa-0FZ0MJbsboTJLNCAE-6">
          <mxGeometry x="142.54545454545453" y="33.53" width="71.27272727272727" height="28.24" as="geometry" />
        </mxCell>
        <mxCell id="Aa-0FZ0MJbsboTJLNCAE-18" value="Video" style="html=1;" vertex="1" parent="Aa-0FZ0MJbsboTJLNCAE-6">
          <mxGeometry x="76.36363636363636" y="105.88" width="81.45454545454544" height="24.12" as="geometry" />
        </mxCell>
        <mxCell id="Aa-0FZ0MJbsboTJLNCAE-22" value="mediaSender" style="rounded=0;whiteSpace=wrap;html=1;" vertex="1" parent="Aa-0FZ0MJbsboTJLNCAE-6">
          <mxGeometry x="132.36363636363635" y="150" width="86.54545454545453" height="20" as="geometry" />
        </mxCell>
        <mxCell id="Aa-0FZ0MJbsboTJLNCAE-39" value="splashy" style="rounded=0;whiteSpace=wrap;html=1;" vertex="1" parent="Aa-0FZ0MJbsboTJLNCAE-6">
          <mxGeometry x="190" y="100" width="90" height="30" as="geometry" />
        </mxCell>
        <mxCell id="Aa-0FZ0MJbsboTJLNCAE-9" value="" style="group" vertex="1" connectable="0" parent="WIyWlLk6GJQsqaUBKTNV-1">
          <mxGeometry x="414" y="190" width="230" height="140" as="geometry" />
        </mxCell>
        <mxCell id="Aa-0FZ0MJbsboTJLNCAE-10" value="" style="shape=folder;fontStyle=1;spacingTop=10;tabWidth=120;tabHeight=20;tabPosition=left;html=1;" vertex="1" parent="Aa-0FZ0MJbsboTJLNCAE-9">
          <mxGeometry width="230" height="140" as="geometry" />
        </mxCell>
        <mxCell id="Aa-0FZ0MJbsboTJLNCAE-11" value="PlayerSubsystem" style="text;html=1;strokeColor=none;fillColor=none;align=center;verticalAlign=middle;whiteSpace=wrap;rounded=0;" vertex="1" parent="Aa-0FZ0MJbsboTJLNCAE-9">
          <mxGeometry width="120" height="20" as="geometry" />
        </mxCell>
        <mxCell id="Aa-0FZ0MJbsboTJLNCAE-21" value="mediaReciver" style="rounded=0;whiteSpace=wrap;html=1;" vertex="1" parent="Aa-0FZ0MJbsboTJLNCAE-9">
          <mxGeometry x="10" y="100" width="80" height="29.7" as="geometry" />
        </mxCell>
        <mxCell id="Aa-0FZ0MJbsboTJLNCAE-23" value="mediaPlayer" style="rounded=0;whiteSpace=wrap;html=1;" vertex="1" parent="Aa-0FZ0MJbsboTJLNCAE-9">
          <mxGeometry x="10" y="40" width="90" height="40" as="geometry" />
        </mxCell>
        <mxCell id="Aa-0FZ0MJbsboTJLNCAE-34" value="" style="group" vertex="1" connectable="0" parent="WIyWlLk6GJQsqaUBKTNV-1">
          <mxGeometry x="400" y="390" width="230" height="140" as="geometry" />
        </mxCell>
        <mxCell id="Aa-0FZ0MJbsboTJLNCAE-35" value="" style="shape=folder;fontStyle=1;spacingTop=10;tabWidth=120;tabHeight=20;tabPosition=left;html=1;" vertex="1" parent="Aa-0FZ0MJbsboTJLNCAE-34">
          <mxGeometry width="230" height="140" as="geometry" />
        </mxCell>
        <mxCell id="Aa-0FZ0MJbsboTJLNCAE-36" value="AccountSubsystem" style="text;html=1;strokeColor=none;fillColor=none;align=center;verticalAlign=middle;whiteSpace=wrap;rounded=0;" vertex="1" parent="Aa-0FZ0MJbsboTJLNCAE-34">
          <mxGeometry width="120" height="20" as="geometry" />
        </mxCell>
        <mxCell id="Aa-0FZ0MJbsboTJLNCAE-37" value="PlayerAuthantication" style="rounded=0;whiteSpace=wrap;html=1;" vertex="1" parent="Aa-0FZ0MJbsboTJLNCAE-34">
          <mxGeometry x="10" y="90" width="160" height="29.7" as="geometry" />
        </mxCell>
        <mxCell id="Aa-0FZ0MJbsboTJLNCAE-38" value="UserCredential" style="rounded=0;whiteSpace=wrap;html=1;" vertex="1" parent="Aa-0FZ0MJbsboTJLNCAE-34">
          <mxGeometry x="10" y="40" width="100" height="30" as="geometry" />
        </mxCell>
      </root>
    </mxGraphModel>
  </diagram>
</mxfile>
